<svg width="21" height="20" viewBox="0 0 21 20" fill="none" xmlns="http://www.w3.org/2000/svg">
<path d="M15.202 9.63578C15.2231 11.9058 17.1934 12.6612 17.2152 12.6708C17.1985 12.724 16.9004 13.7473 16.1772 14.8042C15.5519 15.718 14.9031 16.6284 13.8809 16.6472C12.8766 16.6657 12.5536 16.0517 11.4053 16.0517C10.2574 16.0517 9.89855 16.6284 8.94779 16.6658C7.96115 16.7031 7.2098 15.6777 6.57944 14.7672C5.29132 12.9049 4.30692 9.50483 5.62871 7.20971C6.28535 6.06994 7.45881 5.34819 8.7325 5.32968C9.70136 5.3112 10.6158 5.9815 11.2081 5.9815C11.8001 5.9815 12.9113 5.1754 14.0796 5.29379C14.5687 5.31415 15.9415 5.49135 16.823 6.7817C16.752 6.82573 15.185 7.73799 15.202 9.63578V9.63578ZM13.3144 4.06172C13.8382 3.42766 14.1908 2.545 14.0946 1.66675C13.3395 1.69709 12.4265 2.16989 11.885 2.8036C11.3996 3.36478 10.9745 4.26298 11.0892 5.12384C11.9308 5.18896 12.7906 4.69618 13.3144 4.06172Z" fill="white"/>
</svg>
