<svg width="21" height="20" viewBox="0 0 21 20" fill="none" xmlns="http://www.w3.org/2000/svg">
<path d="M5.99081 11.5646L5.46868 13.5138L3.56032 13.5542C2.99 12.4964 2.6665 11.2861 2.6665 9.99995C2.6665 8.75627 2.96896 7.58346 3.50509 6.55078H3.5055L5.20448 6.86226L5.94874 8.55105C5.79297 9.00517 5.70806 9.49267 5.70806 9.99995C5.70812 10.5505 5.80785 11.078 5.99081 11.5646Z" fill="#FF9A01"/>
<path d="M17.5356 8.59863C17.6217 9.05232 17.6666 9.52087 17.6666 9.99972C17.6666 10.5367 17.6102 11.0604 17.5026 11.5657C17.1375 13.2849 16.1835 14.7861 14.862 15.8485L14.8616 15.8481L12.7216 15.7389L12.4188 13.8482C13.2957 13.3339 13.981 12.5291 14.342 11.5657H10.3315V8.59863H14.4005H17.5356Z" fill="#518EF8"/>
<path d="M14.8611 15.8486L14.8615 15.849C13.5762 16.8821 11.9435 17.5002 10.1662 17.5002C7.31004 17.5002 4.82682 15.9038 3.56006 13.5545L5.99055 11.5649C6.62391 13.2553 8.25454 14.4586 10.1662 14.4586C10.9879 14.4586 11.7577 14.2365 12.4183 13.8487L14.8611 15.8486Z" fill="#28B446"/>
<path d="M14.9535 4.22663L12.5238 6.21577C11.8402 5.78844 11.032 5.54159 10.1663 5.54159C8.21132 5.54159 6.55019 6.80009 5.94855 8.55107L3.50529 6.5508H3.50488C4.7531 4.14422 7.26764 2.5 10.1663 2.5C11.986 2.5 13.6546 3.14822 14.9535 4.22663Z" fill="#F14336"/>
</svg>
