<svg width="21" height="20" viewBox="0 0 21 20" fill="none" xmlns="http://www.w3.org/2000/svg">
<path d="M18.8332 10.0001C18.8332 5.39806 15.1019 1.66675 10.4998 1.66675C5.89781 1.66675 2.1665 5.39806 2.1665 10.0001C2.1665 14.1591 5.21343 17.6068 9.19787 18.2326V12.4095H7.08143V10.0001H9.19787V8.16373C9.19787 6.07541 10.4424 4.9211 12.3456 4.9211C13.2573 4.9211 14.2112 5.08399 14.2112 5.08399V7.1348H13.16C12.1253 7.1348 11.8018 7.777 11.8018 8.43678V10.0001H14.1128L13.7436 12.4095H11.8018V18.2326C15.7863 17.608 18.8332 14.1603 18.8332 10.0001Z" fill="#1977F3"/>
<path d="M13.7442 12.4093L14.1134 9.99989H11.8024V8.43658C11.8024 7.77798 12.1247 7.13461 13.1606 7.13461H14.2118V5.08379C14.2118 5.08379 13.2579 4.9209 12.3462 4.9209C10.443 4.9209 9.19847 6.07404 9.19847 8.16353V9.99989H7.08203V12.4093H9.19847V18.2324C9.6227 18.2992 10.0575 18.3332 10.5004 18.3332C10.9434 18.3332 11.3782 18.2981 11.8024 18.2324V12.4093H13.7442Z" fill="#FEFEFE"/>
</svg>
