<svg width="17" height="17" viewBox="0 0 17 17" fill="none" xmlns="http://www.w3.org/2000/svg">
<path d="M9.97052 3.09046C10.4673 2.55222 10.7157 2.2831 10.9797 2.12612C11.6165 1.74734 12.4008 1.73556 13.0483 2.09504C13.3167 2.24403 13.5727 2.50558 14.0847 3.02867C14.5968 3.55176 14.8529 3.81331 14.9987 4.08745C15.3506 4.74891 15.3391 5.55002 14.9683 6.20063C14.8146 6.47027 14.5511 6.72402 14.0243 7.2315L7.75512 13.2697C6.75664 14.2314 6.25739 14.7123 5.63343 14.956C5.00947 15.1997 4.32352 15.1818 2.95163 15.1459L2.76497 15.141C2.34733 15.1301 2.1385 15.1246 2.01711 14.9868C1.89572 14.8491 1.91229 14.6364 1.94544 14.211L1.96344 13.98C2.05673 12.7825 2.10337 12.1838 2.33719 11.6456C2.57101 11.1074 2.97435 10.6705 3.78101 9.7965L9.97052 3.09046Z" stroke="#4A00F9" stroke-width="1.5" stroke-linejoin="round"/>
<path d="M9.25439 3.1665L13.9211 7.83317" stroke="#4A00F9" stroke-width="1.5" stroke-linejoin="round"/>
<path d="M9.92139 15.1665H15.2547" stroke="#4A00F9" stroke-width="1.5" stroke-linecap="round" stroke-linejoin="round"/>
</svg>
