<svg width="25" height="24" viewBox="0 0 25 24" fill="none" xmlns="http://www.w3.org/2000/svg">
<path d="M3.41699 12C3.41699 7.52166 3.41699 5.28249 4.80823 3.89124C6.19948 2.5 8.43865 2.5 12.917 2.5C17.3953 2.5 19.6345 2.5 21.0258 3.89124C22.417 5.28249 22.417 7.52166 22.417 12C22.417 16.4783 22.417 18.7175 21.0258 20.1088C19.6345 21.5 17.3953 21.5 12.917 21.5C8.43865 21.5 6.19948 21.5 4.80823 20.1088C3.41699 18.7175 3.41699 16.4783 3.41699 12Z" stroke="#6A6A6A" stroke-width="1.5"/>
<path d="M8.41699 17C10.7487 14.5578 15.0602 14.4428 17.417 17M15.4121 9.5C15.4121 10.8807 14.2912 12 12.9085 12C11.5259 12 10.405 10.8807 10.405 9.5C10.405 8.11929 11.5259 7 12.9085 7C14.2912 7 15.4121 8.11929 15.4121 9.5Z" stroke="#6A6A6A" stroke-width="1.5" stroke-linecap="round"/>
</svg>
